<?xml version="1.0" encoding="utf-8"?>
<!-- Generator: Adobe Illustrator 24.2.0, SVG Export Plug-In . SVG Version: 6.00 Build 0)  -->
<svg version="1.1" id="Layer_1" xmlns="http://www.w3.org/2000/svg" xmlns:xlink="http://www.w3.org/1999/xlink" x="0px" y="0px"
	 viewBox="0 0 71.24 66.19" style="enable-background:new 0 0 71.24 66.19;" xml:space="preserve">
<style type="text/css">
	.st0{fill:#C7C535;}
	.st1{fill:#1F8F5E;}
	.st2{fill:#6D6E71;}
</style>
<g>
	<path class="st2" d="M70.12,0H1.11C0.5,0,0,0.5,0,1.11v50.21c0,0.61,0.5,1.11,1.11,1.11h28.4l-1.15,7.59h-5.76
		c-0.61,0-1.11,0.5-1.11,1.11v3.93c0,0.61,0.5,1.11,1.11,1.11h26.02c0.61,0,1.11-0.5,1.11-1.11v-3.93c0-0.61-0.5-1.11-1.11-1.11
		h-5.79l-1.14-7.6h28.42c0.61,0,1.11-0.5,1.11-1.11V1.11C71.24,0.5,70.74,0,70.12,0C70.12,0,70.12,0,70.12,0z M40.59,60.03h-1.17
		c-0.61,0-1.11,0.5-1.11,1.11c0,0.61,0.5,1.11,1.11,1.11h8.09v1.71H23.72v-1.71h12.12c0.61,0,1.11-0.5,1.11-1.11
		c0-0.61-0.5-1.11-1.11-1.11h-5.22l1.15-7.59h7.68L40.59,60.03z M69.01,50.21H2.23V2.23h66.78V50.21z"/>
	<path class="st2" d="M5.81,44.04h3.73c0.61,0,1.11-0.5,1.11-1.11c0-0.61-0.5-1.11-1.11-1.11H6.92V7.12h57.39v34.69H13.29
		c-0.61,0-1.11,0.5-1.11,1.11c0,0.61,0.5,1.11,1.11,1.11h52.13c0.61,0,1.11-0.5,1.11-1.11V6c0-0.61-0.5-1.11-1.11-1.11H5.81
		C5.2,4.89,4.7,5.39,4.7,6v36.92C4.7,43.54,5.2,44.04,5.81,44.04z"/>
	<path class="st2" d="M20.04,38.22v-3.98l4.32,4.73c0.21,0.23,0.51,0.36,0.82,0.36c0.61,0,1.11-0.5,1.11-1.11v-6.85
		c0-0.61-0.5-1.11-1.11-1.11s-1.11,0.5-1.11,1.11v3.98l-4.32-4.73c-0.42-0.45-1.12-0.48-1.57-0.06c-0.22,0.21-0.35,0.5-0.36,0.8
		v6.85c0,0.61,0.5,1.11,1.11,1.11C19.54,39.33,20.04,38.83,20.04,38.22L20.04,38.22L20.04,38.22z"/>
	<path class="st2" d="M32.47,32.48c0.61,0,1.11-0.5,1.11-1.11s-0.5-1.11-1.11-1.11h-3.62c-0.61,0-1.11,0.5-1.11,1.11v6.85
		c0,0.61,0.5,1.11,1.11,1.11h3.62c0.61,0,1.11-0.5,1.11-1.11c0-0.61-0.5-1.11-1.11-1.11h-2.51v-1.19h1.36c0.61,0,1.11-0.5,1.11-1.11
		c0-0.61-0.5-1.11-1.11-1.11h-1.36v-1.2L32.47,32.48z"/>
	<path class="st2" d="M43.46,31.03l-1.15,3.56l-1.15-3.56c-0.16-0.46-0.6-0.77-1.08-0.77c-0.48,0-0.91,0.31-1.06,0.77l-1.15,3.56
		l-1.15-3.56c-0.19-0.59-0.82-0.91-1.4-0.72s-0.91,0.82-0.72,1.4l0,0l2.21,6.85c0.19,0.59,0.82,0.91,1.4,0.72
		c0.34-0.11,0.61-0.38,0.72-0.72l1.16-3.61l1.16,3.61c0.19,0.59,0.82,0.91,1.4,0.72c0.34-0.11,0.61-0.38,0.72-0.72l2.21-6.85
		c0.19-0.59-0.13-1.21-0.72-1.4C44.27,30.12,43.64,30.44,43.46,31.03L43.46,31.03L43.46,31.03z"/>
	<path class="st2" d="M50.6,37.11h-3.31c-0.61,0-1.11,0.5-1.11,1.11c0,0.61,0.5,1.11,1.11,1.11h3.31c1.56,0,2.83-1.27,2.83-2.83
		s-1.27-2.83-2.83-2.83l0,0H49c-0.33,0-0.6-0.27-0.6-0.6s0.27-0.6,0.6-0.6h3.31c0.61,0,1.11-0.5,1.11-1.11s-0.5-1.11-1.11-1.11H49
		c-1.56,0-2.83,1.27-2.83,2.83c0,1.56,1.27,2.83,2.83,2.83h1.59c0.33,0,0.6,0.27,0.6,0.6S50.93,37.11,50.6,37.11z"/>
	<path class="st2" d="M28.15,15.98c-0.61,0-1.11,0.5-1.11,1.11v2.3c0,0.61,0.5,1.11,1.11,1.11s1.11-0.5,1.11-1.11v-0.04h0.95
		c0.16,0.91,0.51,1.78,1.04,2.54l-0.68,0.68l-0.03-0.03c-0.43-0.43-1.14-0.43-1.57,0c-0.43,0.43-0.43,1.14,0,1.57l0.81,0.81l0,0
		l0.81,0.81c0.43,0.43,1.14,0.43,1.57,0c0.43-0.43,0.43-1.14,0-1.57l-0.03-0.03l0.67-0.67c0.76,0.54,1.63,0.9,2.55,1.07v0.96h-0.04
		c-0.61,0-1.11,0.5-1.11,1.11c0,0.61,0.5,1.11,1.11,1.11h2.3c0.61,0,1.11-0.5,1.11-1.11c0-0.61-0.5-1.11-1.11-1.11h-0.04v-0.95
		c0.92-0.15,1.8-0.51,2.57-1.04l0.66,0.66l-0.02,0.02c-0.44,0.43-0.45,1.13-0.03,1.57c0.43,0.44,1.13,0.45,1.57,0.03
		c0.01-0.01,0.02-0.02,0.03-0.03L44,24.14c0.43-0.44,0.42-1.15-0.03-1.57c-0.43-0.42-1.12-0.42-1.55,0l-0.03,0.03l-0.65-0.66
		c0.54-0.77,0.91-1.65,1.07-2.58h0.96v0.04c0,0.61,0.5,1.11,1.11,1.11s1.11-0.5,1.11-1.11v-2.3c0-0.61-0.5-1.11-1.11-1.11
		s-1.11,0.5-1.11,1.11v0.04h-0.96c-0.16-0.93-0.53-1.81-1.07-2.58l0.67-0.67l0.03,0.03c0.43,0.44,1.13,0.45,1.57,0.03
		c0.44-0.43,0.45-1.13,0.03-1.57c-0.01-0.01-0.02-0.02-0.03-0.03l-0.81-0.81l0,0l-0.81-0.81c-0.43-0.44-1.14-0.44-1.58,0
		c-0.44,0.43-0.44,1.14,0,1.58l0.03,0.03l-0.67,0.67c-0.77-0.53-1.65-0.89-2.57-1.04v-0.96h0.04c0.61,0,1.11-0.5,1.11-1.11
		c0-0.61-0.5-1.11-1.11-1.11h-2.29c-0.61,0-1.11,0.5-1.11,1.11c0,0.61,0.5,1.11,1.11,1.11h0.04v0.96c-0.92,0.17-1.79,0.53-2.55,1.07
		l-0.69-0.69l0.03-0.03c0.43-0.43,0.43-1.14,0-1.57c-0.43-0.43-1.14-0.43-1.57,0l-1.63,1.63c-0.45,0.42-0.47,1.12-0.06,1.57
		c0.42,0.45,1.12,0.47,1.57,0.06c0.02-0.02,0.04-0.04,0.06-0.06l0.03-0.03l0.69,0.69c-0.53,0.76-0.88,1.63-1.04,2.54h-0.95V17.1
		C29.26,16.48,28.76,15.98,28.15,15.98z M36.51,14.05c2.31,0,4.19,1.87,4.19,4.18c0,1.1-0.43,2.15-1.19,2.93
		c-0.02,0.02-0.05,0.03-0.07,0.05c-0.02,0.02-0.02,0.04-0.04,0.05c-1.66,1.6-4.31,1.56-5.91-0.11c-0.75-0.78-1.17-1.82-1.17-2.9
		v-0.01v-0.01C32.34,15.92,34.2,14.06,36.51,14.05L36.51,14.05z"/>
	<path class="st2" d="M34.34,19.1c0.14,0.06,0.28,0.09,0.43,0.09c0.3,0,0.58-0.12,0.79-0.33c0.21-0.21,0.32-0.49,0.33-0.79
		c0-0.15-0.03-0.29-0.09-0.43c-0.24-0.57-0.88-0.84-1.45-0.61c-0.13,0.06-0.25,0.15-0.36,0.25c-0.1,0.1-0.19,0.22-0.24,0.36
		c-0.06,0.14-0.09,0.28-0.09,0.43c0,0.29,0.12,0.58,0.33,0.79C34.09,18.96,34.21,19.04,34.34,19.1z"/>
	<path class="st2" d="M37.4,17.68c0.14,0.05,0.28,0.07,0.43,0.07c0.61,0,1.11-0.5,1.11-1.11c0-0.29-0.12-0.58-0.33-0.79
		c-0.32-0.32-0.8-0.41-1.22-0.24c-0.41,0.17-0.68,0.58-0.68,1.02c0,0.3,0.12,0.58,0.33,0.79C37.14,17.53,37.27,17.61,37.4,17.68z"/>
	<path class="st2" d="M37.47,21.12c0.61,0,1.11-0.5,1.11-1.11c0-0.3-0.12-0.58-0.33-0.79c-0.1-0.11-0.23-0.19-0.37-0.25
		c-0.41-0.18-0.9-0.08-1.2,0.25c-0.21,0.21-0.33,0.49-0.33,0.79c0,0.29,0.12,0.58,0.33,0.79C36.89,21,37.18,21.12,37.47,21.12z"/>
</g>
</svg>
