<?xml version="1.0" encoding="utf-8"?>
<!-- Generator: Adobe Illustrator 24.2.0, SVG Export Plug-In . SVG Version: 6.00 Build 0)  -->
<svg version="1.1" id="Layer_1" xmlns="http://www.w3.org/2000/svg" xmlns:xlink="http://www.w3.org/1999/xlink" x="0px" y="0px"
	 viewBox="0 0 72.1 72.1" style="enable-background:new 0 0 72.1 72.1;" xml:space="preserve">
<style type="text/css">
	.st0{fill:#C7C535;}
	.st1{fill:#1F8F5E;}
	.st2{fill:#6D6E71;}
</style>
<g>
	<path class="st2" d="M2.4,2.7c0-0.17,0.13-0.3,0.3-0.3h34.55V0H2.7C1.21,0,0,1.21,0,2.7v4.51h2.4V2.7z"/>
	<path class="st2" d="M2.4,9.61H0v41.76c0,1.49,1.21,2.7,2.7,2.7h26.13v-2.4H2.7c-0.17,0-0.3-0.13-0.3-0.3v-2.1h26.44v-2.4H2.4V9.61
		z"/>
	<path class="st2" d="M63.68,61.28c0.66,0,1.2-0.54,1.2-1.2v-9.61c0-0.66-0.54-1.2-1.2-1.2H37.25c-0.66,0-1.2,0.54-1.2,1.2v9.61
		c0,0.66,0.54,1.2,1.2,1.2H63.68z M38.45,51.67h24.03v7.21H38.45V51.67z"/>
	<path class="st2" d="M67.89,32.44h-0.6v-8.41c0-0.32-0.13-0.62-0.35-0.85l-4.51-4.51c0.36-1.96-0.94-3.84-2.9-4.19
		c-0.21-0.04-0.43-0.06-0.64-0.06h-2.4V8.41c0.66,0,1.2-0.54,1.2-1.2V5.95c0-1.93-1.31-3.61-3.19-4.08l-2.53-0.63l-0.07,0.27
		C51.09,0.55,49.91,0,48.66,0h-7.81c-0.66,0-1.2,0.54-1.2,1.2v3c0,1.62,0.94,3.1,2.4,3.8v7.12c0,1.48,0.78,2.84,2.04,3.61l0.82,0.49
		l-1.54,3.07c-0.01,0.02-0.02,0.04-0.03,0.06l0,0c-0.01,0.01-0.01,0.03-0.02,0.04l-0.01,0.03l-5.75,2.16
		c-1.64,0.62-2.72,2.19-2.73,3.94v8.73h-4.81c-0.66,0-1.2,0.54-1.2,1.2v4.81c0,0.66,0.54,1.2,1.2,1.2h1.2v9.61h2.4v-9.61h33.64
		v25.23H33.64V56.48h-2.4v14.42c0,0.66,0.54,1.2,1.2,1.2h36.05c0.66,0,1.2-0.54,1.2-1.2V44.46h1.2c0.66,0,1.2-0.54,1.2-1.2v-6.61
		C72.09,34.33,70.21,32.45,67.89,32.44z M69.69,36.65v0.6h-7.21v-0.6c0-0.99,0.81-1.8,1.8-1.8h3.6
		C68.89,34.85,69.69,35.65,69.69,36.65z M64.89,32.44h-0.6c-0.2,0-0.4,0.01-0.6,0.04v-3.97c-0.01-1.75-1.09-3.32-2.73-3.94
		l-5.75-2.16l-0.01-0.03c-0.01-0.01-0.01-0.03-0.02-0.04l0,0c-0.01-0.02-0.02-0.04-0.03-0.06l-0.62-1.24
		c0.58,0.37,1.26,0.57,1.95,0.57h2.4c0.83,0,1.64-0.29,2.29-0.82l3.72,3.72V32.44z M44.9,24.97l1.87,1.87l-2.8,0.47L44.9,24.97z
		 M53.63,24.97l0.93,2.33l-2.8-0.47L53.63,24.97z M58.88,16.82c0.66,0,1.2,0.54,1.2,1.2c0,0.66-0.54,1.2-1.2,1.2h-2.4
		c-0.65,0-1.18-0.52-1.2-1.16c0.33-0.34,0.61-0.74,0.81-1.17c0.13-0.04,0.26-0.07,0.39-0.07H58.88z M53.91,4.2
		c0.8,0.2,1.37,0.92,1.37,1.75v0.06h-2.4v-1.8c0-0.09,0-0.18-0.01-0.27L53.91,4.2z M42.06,2.4h6.61c0.99,0,1.8,0.81,1.8,1.8v1.8
		h-6.61c-0.99,0-1.8-0.81-1.8-1.8V2.4z M44.46,8.41h9.61v6.71c0,0.08,0,0.15-0.02,0.23c-0.41,0.38-0.74,0.84-0.94,1.36l-2.92,1.75
		c-0.57,0.34-1.28,0.34-1.85,0l-3-1.8c-0.54-0.33-0.87-0.91-0.88-1.55V8.41z M47.1,20.53c1.33,0.8,3,0.8,4.33,0l0.11-0.07l1.07,2.13
		l-3.35,3.34l-3.34-3.34l1.07-2.13L47.1,20.53z M37.25,28.52c0-0.75,0.47-1.42,1.17-1.69l3.7-1.39l-1.18,2.95
		c-0.25,0.62,0.05,1.32,0.67,1.56c0.14,0.06,0.29,0.09,0.45,0.09c0.07,0,0.13-0.01,0.2-0.02l7.01-1.17l7.01,1.17
		c0.65,0.11,1.27-0.33,1.38-0.99c0.04-0.22,0.01-0.44-0.07-0.64l-1.18-2.95l3.7,1.39c0.7,0.27,1.17,0.94,1.17,1.69v5.13h0.06
		c-0.81,0.79-1.27,1.87-1.27,3v0.6H37.25V28.52z M69.69,42.06H31.24v-2.4h38.45V42.06z"/>
	<path class="st2" d="M36.05,4.81h-6.01c-0.32,0-0.62,0.13-0.85,0.35l-2.4,2.4l1.7,1.7l2.05-2.05h5.51V4.81z"/>
	<rect x="30.04" y="9.61" class="st2" width="6.01" height="2.4"/>
	<path class="st2" d="M14.07,7.56l-2.4-2.4c-0.23-0.23-0.53-0.35-0.85-0.35H4.81v2.4h5.51l2.05,2.05L14.07,7.56z"/>
	<rect x="4.81" y="9.61" class="st2" width="6.01" height="2.4"/>
	<path class="st2" d="M30.04,28.84h3.6v-2.4h-3.11l-2.05-2.05l-1.7,1.7l2.4,2.4C29.42,28.71,29.72,28.84,30.04,28.84z"/>
	<rect x="30.04" y="21.63" class="st2" width="6.01" height="2.4"/>
	<path class="st2" d="M4.81,28.84h6.01c0.32,0,0.62-0.13,0.85-0.35l2.4-2.4l-1.7-1.7l-2.05,2.05H4.81V28.84z"/>
	<rect x="4.81" y="21.63" class="st2" width="6.01" height="2.4"/>
	<path class="st2" d="M27.64,18.02v-2.4h-2.56c-0.11-0.44-0.29-0.85-0.51-1.24l1.81-1.81l-1.7-1.7l-1.81,1.81
		c-0.39-0.23-0.8-0.4-1.24-0.51V9.61h-2.4v2.56c-0.44,0.11-0.85,0.29-1.24,0.51l-1.81-1.81l-1.7,1.7l1.81,1.81
		c-0.23,0.39-0.4,0.8-0.51,1.24h-2.56v2.4h2.56c0.11,0.44,0.29,0.85,0.51,1.24l-1.81,1.81l1.7,1.7l1.81-1.81
		c0.39,0.23,0.8,0.4,1.24,0.51v2.56h2.4v-2.56c0.44-0.11,0.85-0.29,1.24-0.51l1.81,1.81l1.7-1.7l-1.81-1.81
		c0.23-0.39,0.4-0.8,0.51-1.24H27.64z M20.43,19.23c-1.33,0-2.4-1.08-2.4-2.4s1.08-2.4,2.4-2.4c1.33,0,2.4,1.08,2.4,2.4
		C22.83,18.15,21.75,19.22,20.43,19.23z"/>
	<path class="st2" d="M4.81,43.26c0,0.66,0.54,1.2,1.2,1.2h19.23c0.66,0,1.2-0.54,1.2-1.2v-7.21c0-0.66-0.54-1.2-1.2-1.2h-3.6v-4.81
		c0-0.66-0.54-1.2-1.2-1.2h-4.81c-0.66,0-1.2,0.54-1.2,1.2v2.4h-3.6c-0.66,0-1.2,0.54-1.2,1.2v1.2h-3.6c-0.66,0-1.2,0.54-1.2,1.2
		V43.26z M24.03,37.25v4.81h-2.4v-4.81H24.03z M16.82,31.24h2.4v10.81h-2.4V31.24z M12.02,34.85h2.4v7.21h-2.4V34.85z M7.21,37.25
		h2.4v4.81h-2.4V37.25z"/>
</g>
</svg>
