<svg xmlns="http://www.w3.org/2000/svg" viewBox="0 0 44.16 52.14"><defs><style>.cls-1{fill:#7ab472;}.cls-2{fill:#21365b;}</style></defs><g id="Layer_2" data-name="Layer 2"><g id="Layer_1-2" data-name="Layer 1"><path class="cls-1" d="M30.12,23.05a4,4,0,1,0,4.05,4.06A4.13,4.13,0,0,0,30.12,23.05Zm-6,3.88a6,6,0,0,1,12,.22,6,6,0,1,1-12-.22Z"/><path class="cls-1" d="M19,26c-.69,0-1,.22-.88.9a1.41,1.41,0,0,1,0,.41c-.09.67.18.91.88.89a1.79,1.79,0,0,1,2.11,1.57,8.93,8.93,0,0,0,.77,1.89,1.77,1.77,0,0,1-.37,2.55c-.66.64-.66.66,0,1.33a1.8,1.8,0,0,1,.19.2c.69.69.69.69,1.38,0a1.71,1.71,0,0,1,2.48-.36,8.67,8.67,0,0,0,1.63.69c1.61.51,1.8.77,1.87,2.45,0,.2-.05.47.17.54a3,3,0,0,0,1.74,0c.47-.13.24-.62.25-1a1.71,1.71,0,0,1,1.4-1.89,13.52,13.52,0,0,0,1.89-.75c1.41-.72,1.73-.67,2.88.42.16.15.34.42.55.32A2.87,2.87,0,0,0,39.17,35c.23-.4-.24-.63-.48-.88a1.72,1.72,0,0,1-.37-2.33,12.78,12.78,0,0,0,.93-2.26,1.74,1.74,0,0,1,1.86-1.37c1,0,1,0,1-1,0-1.3,0-1.12-1.09-1.14a1.69,1.69,0,0,1-1.88-1.51,9,9,0,0,0-.74-1.82c-.66-1.26-.59-1.72.43-2.77.18-.17.45-.36.33-.61A2.89,2.89,0,0,0,38,18c-.4-.21-.62.27-.86.51a1.81,1.81,0,0,1-2.4.34A12.68,12.68,0,0,0,33,18.08c-1.61-.54-1.74-.69-1.79-2.41,0-.2,0-.48-.17-.56a3.22,3.22,0,0,0-1.74,0c-.47.12-.25.62-.26,1a1.8,1.8,0,0,1-1.52,2,9.22,9.22,0,0,0-1.76.7c-1.35.72-1.81.65-2.88-.4-.16-.16-.33-.44-.55-.34a2.81,2.81,0,0,0-1.29,1.26c-.2.36.25.57.48.81a1.74,1.74,0,0,1,.36,2.44,10.27,10.27,0,0,0-.82,1.93C20.72,25.64,20.26,26,19,26Zm-2.91,1.11c0-.43,0-.87,0-1.3A1.62,1.62,0,0,1,17.87,24h.55a.73.73,0,0,0,.87-.64A5,5,0,0,1,19.87,22a.7.7,0,0,0-.2-1.05,4.43,4.43,0,0,1-.48-.49,2.77,2.77,0,0,1-.22-.29,1.55,1.55,0,0,1,.18-2A25.9,25.9,0,0,1,21.31,16a1.6,1.6,0,0,1,2.17.08,3.78,3.78,0,0,1,.54.52.74.74,0,0,0,1.08.17.68.68,0,0,1,.24-.12c1.2-.31,2-.88,1.81-2.34-.09-.65.6-1.23,1.29-1.25,1.1-.06,2.22-.07,3.33,0a1.38,1.38,0,0,1,1.37,1.56c-.11,1.08.26,1.67,1.33,1.85a1.2,1.2,0,0,1,.43.2c.59.42,1,.28,1.52-.24.9-.93,1.66-1,2.55-.37l.38.33c.58.55,1.14,1.1,1.68,1.69A1.66,1.66,0,0,1,41,20.58c-.83.83-.72.8-.36,2s.82,1.66,2.08,1.52a1.46,1.46,0,0,1,1.47,1.49c0,.52,0,1.05,0,1.57h0c0,.45,0,.91,0,1.36,0,1-.61,1.69-1.61,1.61s-1.67.3-1.84,1.36a1.41,1.41,0,0,1-.13.24c-.47,1-.47,1,.33,1.84a1.68,1.68,0,0,1,0,2.63c-.59.61-1.17,1.21-1.79,1.78a1.94,1.94,0,0,1-.93.53,1.78,1.78,0,0,1-1.64-.61c-.82-.78-.64-.81-1.85-.35s-1.75,1-1.59,2.26a1.29,1.29,0,0,1-1.27,1.34c-1.07,0-2.14.07-3.21,0a1.55,1.55,0,0,1-1.55-1.7,3.27,3.27,0,0,1,0-.54.82.82,0,0,0-.68-1,5.23,5.23,0,0,1-1.31-.56.72.72,0,0,0-1.06.18,4.22,4.22,0,0,1-.7.64,1.58,1.58,0,0,1-2.07-.09c-.69-.62-1.36-1.27-2-2A1.58,1.58,0,0,1,18.93,34a5.18,5.18,0,0,1,.4-.51c.78-.84.68-.81.33-1.89s-.87-1.67-2.14-1.58c-.86.07-1.42-.67-1.45-1.57C16.06,28,16.05,27.54,16.05,27.07Z"/><path class="cls-1" d="M7.25,26.1c1.85,0,3.71,0,5.57,0,.78,0,1.22.4,1.21,1s-.47,1-1.22,1H10c-.93,0-1.86,0-2.78,0-.76,0-1.16-.39-1.16-1v0C6.09,26.44,6.48,26.11,7.25,26.1Z"/><path class="cls-1" d="M7.6,20.06h7.9a3.3,3.3,0,0,1,.88.1.83.83,0,0,1,.59.5,1.15,1.15,0,0,1,.06.28.91.91,0,0,1-.5,1,1.62,1.62,0,0,1-.86.17H7.09a1,1,0,0,1-1-1,.83.83,0,0,1,.25-.69,1.23,1.23,0,0,1,.73-.31A4.87,4.87,0,0,1,7.6,20.06Z"/><path class="cls-1" d="M6.09,33.1c0-.63.37-1,1.13-1q4.34,0,8.65,0c.75,0,1.16.37,1.16.95a1,1,0,0,1-.08.43,1.12,1.12,0,0,1-1.1.58H7.27C6.48,34.09,6.09,33.74,6.09,33.1Z"/><path class="cls-1" d="M12.55,40.11H7.31c-.82,0-1.26-.37-1.24-1s.43-.93,1.24-.93H17.86c.73,0,1.14.35,1.16.94s-.4,1-1.17,1Z"/><path class="cls-2" d="M10.55,12C8,12,5.37,12,2.79,12c-.62,0-.78.19-.78.78Q2,27.6,2,42.43q0,3.49,0,7c0,.61.21.76.79.76q17.31,0,34.62,0c.57,0,.75-.18.74-.74,0-2.59,0-5.17,0-7.77a3.27,3.27,0,0,1,0-.54,1.06,1.06,0,0,1,.76-1,.72.72,0,0,1,.25,0,1,1,0,0,1,1,1c0,.41,0,.82,0,1.23,0,2.5,0,5,0,7.49a2,2,0,0,1-2.3,2.31H2.51C.64,52.14,0,51.52,0,49.64V30.7H0c0-6.38,0-12.77,0-19.15A2.07,2.07,0,0,1,.64,10Q5.36,5.28,10.07.54A1.74,1.74,0,0,1,11.4,0H37.9a2,2,0,0,1,2.27,2.34q0,5,0,10a2.67,2.67,0,0,1-.12,1,1,1,0,0,1-1.5.43,1,1,0,0,1-.31-.48,2.5,2.5,0,0,1-.1-.81q0-4.81,0-9.61c0-.91,0-.94-.89-.94q-12.19,0-24.4,0c-.68,0-.83.25-.83.88,0,2.57,0,5.13,0,7.7C12.05,11.72,11.74,12,10.55,12ZM9.47,3.94Q6.73,6.67,4,9.41c-.12.12-.31.24-.22.46s.31.16.48.16H9.41c.43,0,.62-.17.62-.61,0-.85,0-1.72,0-2.58V4.2c0-.17.06-.39-.16-.47S9.58,3.83,9.47,3.94Z"/></g></g></svg>