<?xml version="1.0" encoding="utf-8"?>
<!-- Generator: Adobe Illustrator 24.2.0, SVG Export Plug-In . SVG Version: 6.00 Build 0)  -->
<svg version="1.1" id="Layer_1" xmlns="http://www.w3.org/2000/svg" xmlns:xlink="http://www.w3.org/1999/xlink" x="0px" y="0px"
	 viewBox="0 0 71.72 62.88" style="enable-background:new 0 0 71.72 62.88;" xml:space="preserve">
<style type="text/css">
	.st0{fill:#C7C535;}
	.st1{fill:#1F8F5E;}
	.st2{fill:#6D6E71;}
</style>
<g>
	<path class="st2" d="M14.48,15.95c3.19,0,6.83-4.72,6.83-8.85c0.24-3.67-2.54-6.84-6.21-7.08C14.89,0,14.69,0,14.48,0
		c-3.68-0.1-6.74,2.81-6.84,6.49c-0.01,0.2,0,0.41,0.01,0.61C7.66,11.24,11.3,15.95,14.48,15.95z M14.48,2.24
		c2.44-0.1,4.5,1.8,4.6,4.25c0.01,0.2,0,0.41-0.02,0.61c0,3.21-2.99,6.61-4.58,6.61S9.9,10.31,9.9,7.1
		c-0.24-2.43,1.54-4.6,3.98-4.84C14.08,2.24,14.28,2.24,14.48,2.24z"/>
	<path class="st2" d="M14.49,39.71c-0.62,0-1.12,0.5-1.12,1.12l0,0v18.28c0,0.62,0.5,1.12,1.12,1.12c0.62,0,1.12-0.5,1.12-1.12
		V40.84C15.62,40.22,15.12,39.72,14.49,39.71C14.5,39.71,14.5,39.71,14.49,39.71z"/>
	<path class="st2" d="M26.7,42.13c1.41-0.74,2.29-2.21,2.29-3.8v-18.1c0-0.44-0.25-0.83-0.65-1.02l-8.6-3.97
		c-0.31-0.15-0.67-0.14-0.98,0.02l-4.27,2.19l-4.26-2.18c-0.31-0.16-0.67-0.17-0.98-0.02l-8.59,3.97C0.25,19.4,0,19.79,0,20.23v18.1
		c0,1.59,0.88,3.05,2.28,3.8l2.98,1.58c0.07,0.03,0.14,0.04,0.22,0.05v15.35c0,0.62,0.5,1.12,1.12,1.12s1.12-0.5,1.12-1.12V25.5
		c0-0.62-0.5-1.12-1.12-1.12s-1.12,0.5-1.12,1.12v15.79l-2.14-1.14c-0.67-0.36-1.09-1.06-1.09-1.82V20.95l6.99-3.23l4.27,7.78
		c0.3,0.54,0.98,0.74,1.52,0.44c0.19-0.1,0.34-0.26,0.44-0.44l4.28-7.79l7,3.23v17.39c0,0.76-0.42,1.46-1.1,1.82l-2.14,1.14V25.5
		c0-0.62-0.5-1.12-1.12-1.12c-0.62,0-1.12,0.5-1.12,1.12v33.62c0,0.62,0.5,1.12,1.12,1.12c0.62,0,1.12-0.5,1.12-1.12V43.78
		c0.08-0.01,0.15-0.03,0.22-0.06L26.7,42.13z M14.49,22.64l-2.03-3.71l1.52,0.78c0.32,0.17,0.7,0.17,1.02,0l1.53-0.78L14.49,22.64z"
		/>
	<path class="st2" d="M57.23,15.95c3.19,0,6.83-4.72,6.83-8.85c0.14-3.77-2.81-6.94-6.58-7.07C53.7-0.11,50.54,2.83,50.4,6.6
		c-0.01,0.16-0.01,0.33,0,0.49C50.4,11.24,54.03,15.95,57.23,15.95z M57.23,2.24c2.44-0.1,4.5,1.8,4.6,4.25
		c0.01,0.2,0,0.41-0.02,0.61c0,3.21-2.99,6.61-4.58,6.61s-4.58-3.4-4.58-6.61c-0.24-2.43,1.54-4.6,3.98-4.84
		C56.82,2.24,57.02,2.24,57.23,2.24z"/>
	<path class="st2" d="M57.23,39.71c-0.62,0-1.12,0.5-1.12,1.12l0,0v18.28c0,0.62,0.5,1.12,1.12,1.12s1.12-0.5,1.12-1.12V40.84
		C58.35,40.22,57.85,39.72,57.23,39.71C57.23,39.71,57.23,39.71,57.23,39.71z"/>
	<path class="st2" d="M71.07,19.21l-8.59-3.97c-0.31-0.15-0.68-0.14-0.98,0.02l-4.27,2.19l-4.26-2.18
		c-0.31-0.16-0.67-0.17-0.98-0.02l-8.6,3.97c-0.4,0.18-0.65,0.58-0.65,1.02v18.1c0,1.59,0.88,3.05,2.29,3.8L48,43.71
		c0.07,0.03,0.15,0.05,0.22,0.07v15.33c0,0.62,0.5,1.12,1.12,1.12s1.12-0.5,1.12-1.12V25.5c0-0.62-0.5-1.12-1.12-1.12
		s-1.12,0.5-1.12,1.12v15.79l-2.14-1.14c-0.67-0.36-1.1-1.06-1.1-1.82V20.95l6.99-3.23l4.27,7.78c0.3,0.54,0.98,0.74,1.52,0.44
		c0.19-0.1,0.34-0.26,0.44-0.44l4.28-7.79l6.99,3.23v17.39c0,0.76-0.42,1.46-1.09,1.82l-2.14,1.14V25.5c0-0.62-0.5-1.12-1.12-1.12
		S64,24.88,64,25.5v33.62c0,0.62,0.5,1.12,1.12,1.12s1.12-0.5,1.12-1.12V43.77c0.07-0.01,0.15-0.03,0.22-0.05l2.98-1.58
		c1.41-0.74,2.29-2.21,2.28-3.8v-18.1C71.72,19.79,71.46,19.4,71.07,19.21z M57.23,22.64l-2.03-3.71l1.52,0.78
		c0.32,0.17,0.7,0.17,1.02,0l1.53-0.78L57.23,22.64z"/>
	<path class="st2" d="M43.62,55.7c-0.43-0.44-1.14-0.46-1.58-0.03c-0.44,0.43-0.46,1.14-0.03,1.58c0.01,0.01,0.02,0.02,0.03,0.03
		l0.71,0.71H28.99l0.71-0.71c0.45-0.43,0.46-1.14,0.03-1.58c-0.43-0.45-1.14-0.46-1.58-0.03c-0.01,0.01-0.02,0.02-0.03,0.03
		l-2.63,2.62c-0.44,0.44-0.44,1.15,0,1.58c0,0,0,0,0,0l2.62,2.62c0.45,0.42,1.16,0.4,1.58-0.06c0.4-0.43,0.4-1.1,0-1.53l-0.71-0.71
		h13.75l-0.71,0.71c-0.45,0.42-0.48,1.13-0.06,1.58c0.42,0.45,1.13,0.48,1.58,0.06c0.02-0.02,0.04-0.04,0.06-0.06l2.62-2.62
		c0.44-0.44,0.44-1.15,0-1.58c0,0,0,0,0,0L43.62,55.7z"/>
</g>
</svg>
