<?xml version="1.0" encoding="utf-8"?>
<!-- Generator: Adobe Illustrator 24.2.0, SVG Export Plug-In . SVG Version: 6.00 Build 0)  -->
<svg version="1.1" id="Layer_1" xmlns="http://www.w3.org/2000/svg" xmlns:xlink="http://www.w3.org/1999/xlink" x="0px" y="0px"
	 viewBox="0 0 67.29 72.1" style="enable-background:new 0 0 67.29 72.1;" xml:space="preserve">
<style type="text/css">
	.st0{fill:#C7C535;}
	.st1{fill:#1F8F5E;}
	.st2{fill:#6D6E71;}
</style>
<g>
	<path class="st2" d="M45.66,67.89c0,0.99-0.81,1.8-1.8,1.8h-5.81c0.27-0.56,0.41-1.18,0.41-1.8V39.65h-2.4v28.24
		c0,0.99-0.81,1.8-1.8,1.8H2.4V50.47H0v20.43c0,0.66,0.54,1.2,1.2,1.2h42.66c2.32,0,4.2-1.88,4.21-4.21v-5.41h-2.4V67.89z"/>
	<rect x="45.66" y="40.85" class="st2" width="2.4" height="19.23"/>
	<path class="st2" d="M2.4,19.23h24.03v-2.4h-7.21V7.81c0-0.99,0.81-1.8,1.8-1.8h11.42V3.6H21.03c-2.32,0-4.2,1.88-4.21,4.21v5.41
		H4.21C1.88,13.22,0,15.1,0,17.42v30.64h2.4V19.23z M4.21,15.62h12.62v1.2H2.51C2.76,16.1,3.44,15.62,4.21,15.62z"/>
	<path class="st2" d="M19.23,34.85c-5.97,0-10.81,4.84-10.81,10.81s4.84,10.81,10.81,10.81s10.81-4.84,10.81-10.81
		C30.03,39.69,25.2,34.85,19.23,34.85z M26.12,40.85h-2.76c-0.32-1.1-0.78-2.15-1.37-3.14C23.67,38.31,25.11,39.4,26.12,40.85
		L26.12,40.85z M27.64,45.66c0,0.81-0.12,1.62-0.35,2.4H23.9c0.21-1.6,0.21-3.21-0.01-4.81h3.4C27.52,44.04,27.64,44.85,27.64,45.66
		z M19.21,53.47c-0.72-0.9-1.28-1.92-1.65-3.01h3.3C20.49,51.56,19.93,52.57,19.21,53.47z M16.95,48.06
		c-0.25-1.59-0.25-3.22,0.01-4.81h4.49c0.26,1.59,0.26,3.21,0.01,4.81H16.95z M10.81,45.66c0-0.81,0.12-1.62,0.35-2.4h3.37
		c-0.22,1.59-0.22,3.21-0.01,4.81h-3.36C10.93,47.28,10.81,46.47,10.81,45.66z M20.83,40.85h-3.24c0.37-1.06,0.92-2.05,1.62-2.92
		C19.91,38.81,20.46,39.79,20.83,40.85z M16.41,37.73c-0.58,0.98-1.04,2.03-1.36,3.12h-2.73C13.33,39.42,14.76,38.32,16.41,37.73z
		 M12.33,50.47h2.7c0.31,1.08,0.76,2.12,1.32,3.1C14.72,52.97,13.32,51.89,12.33,50.47z M22.06,53.58c0.57-0.98,1.02-2.02,1.33-3.11
		h2.73C25.12,51.9,23.7,52.99,22.06,53.58z"/>
	<rect x="12.02" y="27.64" class="st2" width="14.42" height="2.4"/>
	<rect x="14.42" y="61.28" class="st2" width="9.61" height="2.4"/>
	<rect x="14.42" y="22.83" class="st2" width="9.61" height="2.4"/>
	<rect x="26.44" y="61.28" class="st2" width="2.4" height="2.4"/>
	<rect x="9.61" y="61.28" class="st2" width="2.4" height="2.4"/>
	<path class="st2" d="M50.63,0.17l-0.32,2.38c8.31,1.11,14.58,8.28,14.58,16.67c-0.01,9.29-7.54,16.81-16.82,16.82
		c-2.49,0.01-4.95-0.55-7.2-1.62c-0.22-0.11-0.47-0.14-0.71-0.1l-8.41,1.41l2.03-6.9c0.09-0.32,0.05-0.67-0.12-0.96
		c-4.78-7.97-2.2-18.3,5.77-23.09c2.61-1.57,5.6-2.4,8.65-2.4V0C37.44,0,28.84,8.61,28.84,19.24c0,3.3,0.85,6.55,2.47,9.43
		l-2.42,8.25c-0.19,0.64,0.18,1.3,0.81,1.49c0.17,0.05,0.36,0.06,0.54,0.03l9.94-1.67c2.48,1.12,5.17,1.69,7.89,1.69
		c10.61-0.01,19.21-8.61,19.23-19.23C67.29,9.63,60.13,1.44,50.63,0.17z"/>
	<path class="st2" d="M56.99,7.9c-2.54-2.02-5.69-3.11-8.93-3.1c-7.96,0.01-14.41,6.46-14.42,14.42c-0.01,3.24,1.08,6.39,3.1,8.93
		c0.21,0.27,0.53,0.43,0.87,0.46c0.02,0,0.05,0,0.07,0c0.32,0,0.62-0.13,0.85-0.35L57.1,9.69c0.47-0.47,0.47-1.23,0-1.7
		C57.06,7.96,57.03,7.93,56.99,7.9z M37.84,25.55c-1.18-1.9-1.8-4.09-1.8-6.32c0.01-6.63,5.38-12.01,12.02-12.02
		C50.3,7.2,52.49,7.82,54.39,9L37.84,25.55z"/>
	<path class="st2" d="M40.11,30.73c0.05,0.37,0.26,0.69,0.58,0.88c6.85,4.07,15.7,1.82,19.77-5.02c2.7-4.54,2.7-10.2,0-14.74
		c-0.34-0.57-1.08-0.76-1.65-0.42c-0.09,0.05-0.16,0.11-0.23,0.18L40.45,29.74C40.19,30,40.07,30.37,40.11,30.73z M59.11,14.48
		c2.62,6.1-0.21,13.17-6.31,15.79c-3.03,1.3-6.45,1.3-9.48,0L59.11,14.48z"/>
	<rect x="40.85" y="62.48" class="st2" width="2.4" height="4.81"/>
	<rect x="40.85" y="55.27" class="st2" width="2.4" height="4.81"/>
	<rect x="40.85" y="48.06" class="st2" width="2.4" height="4.81"/>
	<rect x="40.85" y="40.85" class="st2" width="2.4" height="4.81"/>
</g>
</svg>
