<svg xmlns="http://www.w3.org/2000/svg" viewBox="0 0 60.04 48.06"><defs><style>.cls-1{fill:#7ab472;}.cls-2{fill:#21365b;}</style></defs><g id="Layer_2" data-name="Layer 2"><g id="Layer_1-2" data-name="Layer 1"><path class="cls-1" d="M49.33,19.49a1,1,0,0,1,1.17-.28.75.75,0,0,1,.5.8.86.86,0,0,1-.31.72C49.44,22,48.2,23.23,47,24.47l-1.31-1.31.12-.12Z"/><path class="cls-1" d="M44.28,25.53l-2.68-2.7c-.49-.51-.54-1-.16-1.44s.94-.35,1.44.14,1,1,1.49,1.48c.67.66.71.7,1.27.15L47,24.47l-1.07,1.07A1,1,0,0,1,44.28,25.53Z"/><path class="cls-1" d="M36.12,22a10,10,0,0,1,19.94-.26,9.43,9.43,0,0,1-1.79,6A.85.85,0,0,0,54.4,29c1.75,1.71,3.48,3.46,5.2,5.2.48.49.57,1.08.23,1.44a1,1,0,0,1-1.5-.12l-5.11-5.11c-.85-.85-.82-.64-1.56-.16A10,10,0,0,1,36.12,22ZM38,21.91a8.11,8.11,0,1,0,16.22,0,8.11,8.11,0,0,0-16.22,0Z"/><path class="cls-2" d="M35,30c-.66,0-1.31,0-2,0h0c-.63,0-1.27,0-1.9,0a.87.87,0,0,1-.95-.93.84.84,0,0,1,.92-.88c1.31,0,2.63,0,3.94,0a.87.87,0,0,1,1,.93A.91.91,0,0,1,35,30Z"/><path class="cls-2" d="M33.94,25.05a.87.87,0,0,1-.86.88,8.49,8.49,0,0,1-1,0c-.34,0-.68,0-1,0a.86.86,0,0,1-.91-.9.84.84,0,0,1,.88-.91c.68,0,1.36,0,2,0A.84.84,0,0,1,33.94,25.05Z"/><path class="cls-2" d="M32,12.06h4.68a1.34,1.34,0,0,1,.2,0c.67.06,1,.4,1,.95s-.36.89-1.05.9c-.94,0-1.9,0-2.84,0v0H31.54a3,3,0,0,1-.67-.06.87.87,0,0,1-.75-.92.84.84,0,0,1,.77-.83A8.7,8.7,0,0,1,32,12.06Z"/><path class="cls-2" d="M31.33,32.14h7.49a1,1,0,0,1,1.12.69.85.85,0,0,1-.35,1,1.35,1.35,0,0,1-.86.18H31.25a1,1,0,0,1-1-.47.83.83,0,0,1,.47-1.26A1.66,1.66,0,0,1,31.33,32.14Z"/><path class="cls-2" d="M36.91,38H31.28c-.74,0-1.12-.32-1.13-.88s.35-.94,1.07-.94c1.9,0,3.8,0,5.7,0,.69,0,1,.36,1,.92S37.6,38,36.91,38Z"/><path class="cls-2" d="M40.73,9.9H31.41a1.24,1.24,0,0,1-1.1-.41.86.86,0,0,1-.08-1,1,1,0,0,1,1-.49h9.51c.81,0,1.27.35,1.26.93S41.52,9.9,40.73,9.9Z"/><path class="cls-2" d="M31,16.1c1,0,2,0,3.05,0a.84.84,0,0,1,.87.93.87.87,0,0,1-.93.87c-.5,0-1,0-1.5,0h0c-.47,0-.95,0-1.42,0a.87.87,0,0,1-.94-.87A.83.83,0,0,1,31,16.1Z"/><path class="cls-2" d="M30.94,21.91a.87.87,0,0,1-.82-.86.85.85,0,0,1,.75-.92,8.43,8.43,0,0,1,2.3,0,.85.85,0,0,1,.78,1,.87.87,0,0,1-.9.84c-.34,0-.68,0-1,0h0A9.91,9.91,0,0,1,30.94,21.91Z"/><path class="cls-1" d="M27.7,32.45a1,1,0,0,1-.21,1.45L25,36.39,23.7,35.1q1.25-1.27,2.49-2.52A1,1,0,0,1,27.7,32.45Z"/><path class="cls-1" d="M26.17,8.51c.56-.54,1.1-.6,1.5-.19a1.06,1.06,0,0,1-.19,1.51c-1.24,1.24-2.48,2.48-3.72,3.7a1,1,0,0,1-1.5,0c-.63-.59-1.24-1.2-1.84-1.83a.91.91,0,0,1-.26-1,.93.93,0,0,1,.86-.57c.57,0,.84.5,1.21.83.79.72.78.74,1.53,0S25.36,9.3,26.17,8.51Z"/><path class="cls-1" d="M20.42,19.72a.93.93,0,0,1-.07-1.34.92.92,0,0,1,1.34,0l.15.14c1.35,1.29,1,1.26,2.38-.07.64-.63,1.27-1.29,1.93-1.92s1.11-.62,1.54-.18.29.95-.25,1.49l-3.61,3.6a1.11,1.11,0,0,1-.81.44.93.93,0,0,1-.72-.32C21.67,21,21,20.36,20.42,19.72Z"/><path class="cls-1" d="M27.58,25.77c-1.23,1.21-2.42,2.44-3.65,3.65-.73.73-1.11.72-1.83,0-.56-.54-1.1-1.08-1.64-1.64a.92.92,0,0,1-.07-1.43c.38-.36.9-.3,1.39.16,1.22,1.16,1.23,1.16,2.41,0,.72-.69,1.41-1.41,2.13-2.1a.91.91,0,0,1,1.12-.2.82.82,0,0,1,.49.74A1.13,1.13,0,0,1,27.58,25.77Z"/><path class="cls-1" d="M20.18,34.73a.85.85,0,0,1,.79-.55.87.87,0,0,1,.63.23c.24.23.49.46.73.71.6.61.76.6,1.37,0L25,36.39l-1.17,1.16A1.22,1.22,0,0,1,23,38a1.16,1.16,0,0,1-.76-.39C21.61,37,21,36.4,20.4,35.78a.93.93,0,0,1-.31-.67A.92.92,0,0,1,20.18,34.73Z"/><path class="cls-2" d="M27,42c-1,0-1.05,0-1.05,1a4.7,4.7,0,0,1-.55,2.35c-.37.7-.3.82.49.82H50.93A3.11,3.11,0,0,0,54.19,43c0-.92,0-1-.93-1H27ZM25.4,40.18H45.7c.54,0,1.09,0,1.63,0s.86-.22.85-.83c0-1.35,0-2.69,0-4a1.1,1.1,0,0,1,.39-1l.16-.09c.67-.29,1.3.17,1.31,1,0,1.34,0,2.68,0,4,0,.87.07.94.93.94h3.81c1,0,1.3.31,1.3,1.31a9.31,9.31,0,0,1-.3,3.24A4.92,4.92,0,0,1,51,48.05H22.68c-.62,0-1.23,0-1.84,0a4.91,4.91,0,0,1-4.75-4.42c0-.4,0-.82,0-1.22V24.08h0q0-9.4,0-18.81a3.12,3.12,0,0,0-1.56-3A3.08,3.08,0,0,0,9.87,5c0,.81,0,1.63,0,2.44,0,5.8,0,11.59,0,17.38a5.4,5.4,0,0,1-.58,2.56c-.32.6-.22.74.49.74h2.93c.76,0,1.18.38,1.17.95s-.45.89-1.15.9c-2.61,0-5.22,0-7.83,0A4.8,4.8,0,0,1,0,25c0-3.22,0-6.44,0-9.67,0-1,.29-1.25,1.27-1.26h3.4c.74,0,1.12.31,1.14.89s-.38.95-1.14,1-1.46,0-2.18,0c-.47,0-.66.2-.66.66,0,2.84,0,5.68,0,8.51A3.07,3.07,0,1,0,8,25C8,18.4,8,11.83,8,5.27A4.92,4.92,0,0,1,13.25,0H44a5.92,5.92,0,0,1,6.08,6c0,.91,0,1.81,0,2.73,0,.77-.36,1.18-.93,1.2a.84.84,0,0,1-.4-.09,1.22,1.22,0,0,1-.54-1.16c0-.8,0-1.59,0-2.39a4.12,4.12,0,0,0-4.41-4.38H18c-1,0-1,.12-.59,1a5.61,5.61,0,0,1,.5,2.58q0,17.2,0,34.41c0,1.07,0,2.14,0,3.2a3.08,3.08,0,0,0,6.15.25c0-.59,0-1.18,0-1.77C24.09,40.47,24.39,40.18,25.4,40.18Z"/></g></g></svg>